<svg id="Слой_1" data-name="Слой 1" xmlns="http://www.w3.org/2000/svg" xmlns:xlink="http://www.w3.org/1999/xlink" viewBox="0 0 808.09 257.52"><defs><style>.cls-1,.cls-19,.cls-3,.cls-4{fill:none;}.cls-1,.cls-18,.cls-19{stroke:#1d1d1b;}.cls-1,.cls-18,.cls-19,.cls-20,.cls-3,.cls-4{stroke-miterlimit:10;}.cls-1{stroke-width:0.5px;}.cls-2{isolation:isolate;font-size:19.98px;fill:#1e1e1c;font-family:MonotypeCorsiva, Monotype Corsiva;}.cls-3,.cls-4{stroke:#1e1e1c;}.cls-3{stroke-width:0.3px;}.cls-4{stroke-width:0.19px;}.cls-5{font-size:22.28px;fill:#5e9ea0;font-family:Cambria;}.cls-6{letter-spacing:-0.02em;}.cls-7{letter-spacing:-0.01em;}.cls-8{letter-spacing:-0.02em;}.cls-10,.cls-9{letter-spacing:0em;}.cls-10,.cls-15,.cls-18,.cls-21{fill:#1d1d1b;}.cls-11{letter-spacing:-0.02em;}.cls-12{letter-spacing:0em;}.cls-13{letter-spacing:-0.01em;}.cls-14{letter-spacing:-0.01em;}.cls-16{letter-spacing:0.01em;}.cls-17{letter-spacing:-0.04em;}.cls-18{font-size:73px;stroke-width:5px;}.cls-18,.cls-20{font-family:TimesNewRomanPSMT, Times New Roman;}.cls-19{stroke-width:7px;}.cls-20{font-size:36px;fill:#5d9ea0;stroke:#5d9ea0;}.cls-21{font-size:46px;font-family:TimesNewRomanPS-BoldMT, Times New Roman;font-weight:700;}.cls-22{letter-spacing:-0.02em;}</style></defs><image width="563" height="375" transform="translate(0.25 0.25) scale(1.43 0.54)" xlink:href="../../../Graph%20Design/%D0%B1%D1%83%D0%BC%D0%B0%D0%B3%D0%B0.jpg"/><rect class="cls-1" x="0.25" y="0.25" width="201.9" height="201.9"/><rect class="cls-1" x="202.15" y="0.25" width="201.9" height="201.9"/><rect class="cls-1" x="404.05" y="0.25" width="201.9" height="201.9"/><rect class="cls-1" x="605.94" y="0.25" width="201.9" height="201.9"/><text class="cls-2" transform="translate(75.2 25.02) scale(0.85 1)">ANT</text><path class="cls-3" d="M104.55,154.29c.18-1.43,1-2.32,1.72-2.23s1.14.95,1.28,1.56c.31,1.4-.59,3.13-2.22,4.45-2,.15-3.69-.78-4.08-2.19a2.61,2.61,0,0,1,.62-2.65C102.63,152.66,103.81,153,104.55,154.29Z" transform="translate(-16.99 -146.21)"/><path class="cls-4" d="M116.34,173c.41-.81,1.07-1.09,1.45-.81a1.47,1.47,0,0,1,.37,1.35,2.66,2.66,0,0,1-2.23,2,2.81,2.81,0,0,1-1.8-2.62c.05-.55.39-1.32.94-1.41S116.21,172,116.34,173Z" transform="translate(-16.99 -146.21)"/><text class="cls-2" transform="translate(281.69 28.03) scale(0.85 1)">ANT</text><path class="cls-3" d="M311,157.31c.17-1.44,1-2.32,1.71-2.24s1.14,1,1.28,1.57c.31,1.39-.58,3.13-2.21,4.44-2.05.15-3.69-.77-4.09-2.19a2.66,2.66,0,0,1,.62-2.65C309.11,155.68,310.3,156.06,311,157.31Z" transform="translate(-16.99 -146.21)"/><path class="cls-4" d="M322.82,176c.42-.82,1.07-1.09,1.46-.82a1.52,1.52,0,0,1,.37,1.36,2.7,2.7,0,0,1-2.23,2,2.84,2.84,0,0,1-1.81-2.62c.05-.56.39-1.32.94-1.42S322.69,175,322.82,176Z" transform="translate(-16.99 -146.21)"/><text class="cls-2" transform="translate(479.89 28.03) scale(0.85 1)">ANT</text><path class="cls-3" d="M509.24,157.31c.17-1.44,1-2.32,1.71-2.24s1.15,1,1.28,1.57c.32,1.39-.58,3.13-2.21,4.44-2,.15-3.69-.77-4.08-2.19a2.62,2.62,0,0,1,.62-2.65C507.31,155.68,508.5,156.06,509.24,157.31Z" transform="translate(-16.99 -146.21)"/><path class="cls-4" d="M521,176c.42-.82,1.07-1.09,1.46-.82a1.49,1.49,0,0,1,.37,1.36,2.68,2.68,0,0,1-2.23,2,2.86,2.86,0,0,1-1.81-2.62c.06-.56.4-1.32.94-1.42S520.89,175,521,176Z" transform="translate(-16.99 -146.21)"/><text class="cls-2" transform="translate(693.89 28.03) scale(0.85 1)">ANT</text><path class="cls-3" d="M723.25,157.31c.17-1.44,1-2.32,1.71-2.24s1.14,1,1.28,1.57c.31,1.39-.58,3.13-2.21,4.44-2.06.15-3.69-.77-4.09-2.19a2.66,2.66,0,0,1,.62-2.65C721.32,155.68,722.51,156.06,723.25,157.31Z" transform="translate(-16.99 -146.21)"/><path class="cls-4" d="M735,176c.42-.82,1.07-1.09,1.46-.82a1.52,1.52,0,0,1,.37,1.36,2.7,2.7,0,0,1-2.24,2,2.85,2.85,0,0,1-1.8-2.62c0-.56.39-1.32.94-1.42S734.9,175,735,176Z" transform="translate(-16.99 -146.21)"/><text class="cls-5" transform="translate(14.1 66.82) scale(0.76 1)">When b<tspan class="cls-6" x="73.23" y="0">u</tspan><tspan x="85.09" y="0">ying f</tspan><tspan class="cls-7" x="137.6" y="0">r</tspan><tspan x="146.49" y="0">om </tspan><tspan x="46.98" y="19.37">10 000 т </tspan><tspan x="39.53" y="38.75">del</tspan><tspan class="cls-6" x="68.81" y="38.75">i</tspan><tspan class="cls-8" x="74.55" y="38.75">v</tspan><tspan class="cls-9" x="85.34" y="38.75">ery is</tspan><tspan class="cls-10" x="137.32" y="38.75"> </tspan></text><text class="cls-5" transform="translate(211.76 66.82) scale(0.76 1)">Special<tspan class="cls-11" x="67.26" y="0">l</tspan><tspan class="cls-12" x="72.86" y="0">y </tspan><tspan class="cls-13" x="88.99" y="0">f</tspan><tspan x="95.47" y="0">or the </tspan><tspan x="24.94" y="19.37">first o</tspan><tspan class="cls-14" x="80.94" y="19.37">r</tspan><tspan class="cls-12" x="89.83" y="19.37">der</tspan><tspan class="cls-15" x="122.27" y="19.37"> </tspan><tspan x="127.17" y="19.37"> </tspan><tspan x="35.04" y="38.75">discoun</tspan><tspan class="cls-16" x="109.55" y="38.75">t</tspan><tspan x="117.41" y="38.75">.</tspan></text><text class="cls-5" transform="translate(441.01 66.82) scale(0.76 1)"><tspan class="cls-17">F</tspan><tspan x="11.09" y="0">or the </tspan><tspan x="-24.31" y="19.37">second thing</tspan><tspan x="-7.15" y="38.75">discoun</tspan><tspan class="cls-16" x="67.36" y="38.75">t</tspan><tspan x="75.23" y="38.75">.</tspan></text><text class="cls-5" transform="translate(628.77 66.82) scale(0.76 1)"><tspan class="cls-17">F</tspan><tspan x="11.09" y="0">or the </tspan><tspan x="-19.41" y="19.37">thi</tspan><tspan class="cls-14" x="6.61" y="19.37">r</tspan><tspan class="cls-9" x="15.5" y="19.37" xml:space="preserve">d thing  </tspan><tspan x="-7.15" y="38.75">discoun</tspan><tspan class="cls-16" x="67.36" y="38.75">t</tspan><tspan x="75.23" y="38.75">.</tspan></text><text class="cls-18" transform="translate(301.15 173.95)">1</text><ellipse class="cls-19" cx="355.03" cy="149.62" rx="20.09" ry="24.34"/><text class="cls-20" transform="translate(340.04 160.91)">%</text><text x="-16.99" y="-146.21"/><text class="cls-18" transform="translate(489.29 172.15)"><tspan xml:space="preserve"> 3</tspan></text><ellipse class="cls-19" cx="567.8" cy="147.81" rx="20.09" ry="24.34"/><text class="cls-20" transform="translate(552.81 159.1)">%</text><text class="cls-18" transform="translate(675.75 172.15)"><tspan xml:space="preserve"> 5</tspan></text><ellipse class="cls-19" cx="754.26" cy="147.81" rx="20.09" ry="24.34"/><text class="cls-20" transform="translate(739.27 159.1)">%</text><text class="cls-21" transform="translate(86.43 164.58)">F<tspan class="cls-22" x="28.1" y="0">r</tspan><tspan x="47.68" y="0">ee</tspan></text></svg>