<svg id="Слой_1" data-name="Слой 1" xmlns="http://www.w3.org/2000/svg" viewBox="0 0 220.64 133.89"><defs><style>.cls-1,.cls-2{fill:#1d1d1b;}.cls-2{font-size:105px;font-family:MonotypeCorsiva, Monotype Corsiva;}.cls-3,.cls-4{fill:none;stroke:#1d1d1b;stroke-miterlimit:10;}.cls-3{stroke-width:1.72px;}.cls-4{stroke-width:1.1px;}</style></defs><path class="cls-1" d="M184.47,141.82" transform="translate(-249.26 -174.17)"/><text class="cls-2" transform="translate(5.35 101.69)">ANT</text><path class="cls-3" d="M331,186.81c1.08-7.54,6.13-12.18,10.59-11.75,4.19.39,7.06,5,7.91,8.23,1.94,7.34-3.61,16.45-13.68,23.36-12.67.8-22.79-4.06-25.23-11.49-1.38-4.2-.83-11,3.84-13.95S326.43,180.25,331,186.81Z" transform="translate(-249.26 -174.17)"/><path class="cls-4" d="M403.8,285c2.58-4.28,6.62-5.74,9-4.28s2.66,4.93,2.29,7.13c-.83,5-6.33,9-13.79,10.51-7.31-2.93-11.72-8.6-11.15-13.77.33-2.93,2.43-6.94,5.81-7.44S403,279.8,403.8,285Z" transform="translate(-249.26 -174.17)"/></svg>